
<svg version="1.1" xmlns="http://www.w3.org/2000/svg" width="485" height="489">
    <path d="M0 0 C1.08643799 0.56436768 2.17287598 1.12873535 3.29223633 1.71020508 C5.45827408 2.87936117 7.59258618 4.10930283 9.69018555 5.3972168 C17.54678282 10.10269137 24.50237531 11.61084651 33.53738403 12.04559326 C36.58750233 12.19406068 39.63140333 12.41427317 42.67741394 12.62963867 C44.26346504 12.74139776 45.8497457 12.84994407 47.43623352 12.95532227 C121.1353115 17.91175229 121.1353115 17.91175229 135.18310547 32.46777344 C140.87339724 40.82443173 139.92031906 53.15339363 139.73046875 62.77734375 C139.71536711 64.115219 139.70168856 65.45311109 139.68945312 66.79101562 C139.65452472 70.01607123 139.60547999 73.24022523 139.54296875 76.46484375 C132.58053155 80.00830636 125.6899689 81.75870839 118.04296875 83.21484375 C116.42841797 83.54548828 116.42841797 83.54548828 114.78125 83.8828125 C108.58330373 85.09824411 102.8563397 85.70358467 96.54296875 85.46484375 C96.64996094 84.38847656 96.75695312 83.31210937 96.8671875 82.203125 C97.90329205 70.31526058 97.90617702 59.15075099 90.62890625 49.05078125 C89.54296875 47.46484375 89.54296875 47.46484375 88.54296875 44.46484375 C86.79639058 43.38414317 86.79639058 43.38414317 84.54296875 42.46484375 C83.58261719 41.97886719 82.62226563 41.49289063 81.6328125 40.9921875 C80.59253906 40.46753906 79.55226563 39.94289063 78.48046875 39.40234375 C77.43761719 38.87511719 76.39476562 38.34789062 75.3203125 37.8046875 C67.89740389 34.2237344 58.64085619 34.45751753 50.6171875 36.04296875 C41.87457297 39.11055279 34.69466347 45.57903965 30.48046875 53.77734375 C28.32969668 58.53047348 27.42924632 62.6748492 27.2265625 67.88671875 C27.18466797 68.91152344 27.14277344 69.93632812 27.09960938 70.9921875 C27.04063477 72.58740234 27.04063477 72.58740234 26.98046875 74.21484375 C26.93728516 75.29378906 26.89410156 76.37273437 26.84960938 77.484375 C26.74367886 80.14440803 26.64160454 82.80453187 26.54296875 85.46484375 C-38.4599332 85.68519596 -103.47507052 85.21836998 -168.45703125 83.46484375 C-168.44905518 82.37292725 -168.4410791 81.28101074 -168.43286133 80.15600586 C-168.42640972 78.70556722 -168.4201538 77.2551277 -168.4140625 75.8046875 C-168.408302 75.0871228 -168.4025415 74.36955811 -168.39660645 73.63024902 C-168.36357957 63.13070565 -170.26279129 54.36158337 -177.36328125 46.30078125 C-184.42554196 39.46881165 -192.66599954 35.27034408 -202.58203125 34.96484375 C-213.35221908 35.52506158 -221.50983505 39.06573004 -229.45703125 46.46484375 C-235.64675485 54.45080086 -236.57394475 61.48174539 -237.01953125 71.27734375 C-237.08430664 72.60282227 -237.08430664 72.60282227 -237.15039062 73.95507812 C-237.25594661 76.12483998 -237.35694196 78.29482285 -237.45703125 80.46484375 C-247.04621729 79.90119292 -256.42375484 78.67380636 -265.89453125 77.08984375 C-267.22977686 76.87864783 -268.56506322 76.66770936 -269.90039062 76.45703125 C-271.17591797 76.245625 -272.45144531 76.03421875 -273.765625 75.81640625 C-274.90829834 75.62900879 -276.05097168 75.44161133 -277.22827148 75.24853516 C-281.53495023 74.20320897 -285.27971394 72.93299479 -288.1015625 69.4140625 C-290.34051384 65.07843433 -292.16035591 61.40943268 -292.45703125 56.46484375 C-292.51890625 55.59472656 -292.58078125 54.72460938 -292.64453125 53.828125 C-292.97432605 46.10886539 -292.97432605 46.10886539 -290.51171875 43.04296875 C-287.99151506 39.88073598 -287.720594 37.76545299 -287.26953125 33.77734375 C-287.04136719 31.92689453 -287.04136719 31.92689453 -286.80859375 30.0390625 C-286.59812322 27.89927877 -286.41630107 25.75594469 -286.29296875 23.609375 C-285.99648829 18.57700933 -285.27763933 14.49280185 -282.47973633 10.23046875 C-277.97940523 6.30211697 -271.19817893 6.60453449 -265.45703125 6.15234375 C-262.74730938 5.89893278 -260.03958956 5.62705421 -257.33203125 5.3515625 C-256.66435226 5.2849794 -255.99667328 5.2183963 -255.3087616 5.14979553 C-244.36880984 4.00023858 -234.67496836 1.06513863 -224.64453125 -3.34765625 C-222.5346767 -4.24932296 -220.4239985 -5.1490648 -218.3125 -6.046875 C-216.79922119 -6.69342041 -216.79922119 -6.69342041 -215.25537109 -7.35302734 C-201.30146439 -13.24770683 -186.83939628 -17.81909517 -172.45703125 -22.53515625 C-172.95203125 -24.02015625 -172.95203125 -24.02015625 -173.45703125 -25.53515625 C-172.75046387 -25.37337891 -172.04389648 -25.21160156 -171.31591797 -25.04492188 C-161.28675926 -23.25663124 -150.70417497 -24.85438319 -140.63491821 -25.81826782 C-88.52403238 -30.72612838 -46.25987842 -24.25361922 0 0 Z " fill="#101010" transform="translate(325.45703125,199.53515625)"/><path d="M0 0 C0.84981445 0.16097168 1.69962891 0.32194336 2.57519531 0.48779297 C26.00996654 4.9805364 47.00789278 15.72101961 66.21484375 29.72265625 C67.97585754 31.05325372 67.97585754 31.05325372 70 32 C70 32.66 70 33.32 70 34 C63.73967086 33.90218857 57.479557 33.7955531 51.21948242 33.68261719 C49.11567714 33.64568361 47.01183661 33.61067754 44.90795898 33.578125 C33.26279964 33.39639123 21.63014613 33.09682024 9.99633789 32.55419922 C-21.4220389 31.09250736 -52.83060639 30.42041746 -84.27651364 29.96518195 C-91.25205131 29.86393389 -98.22746533 29.75507735 -105.20288169 29.64583755 C-119.46847058 29.42258612 -133.73418178 29.20808008 -148 29 C-148 28.01 -148 27.02 -148 26 C-138.16401059 18.09836101 -125.43360284 13.09556574 -114 8 C-113.20891846 7.63922363 -112.41783691 7.27844727 -111.6027832 6.90673828 C-104.76824994 3.95557282 -97.88311335 2.59727026 -90.5625 1.375 C-89.31533203 1.16335205 -88.06816406 0.9517041 -86.78320312 0.73364258 C-83.19155426 0.13665856 -79.59711065 -0.43697857 -76 -1 C-75.1529248 -1.13712402 -74.30584961 -1.27424805 -73.43310547 -1.41552734 C-49.81903816 -5.10083963 -23.39888501 -4.8185434 0 0 Z " fill="#F9F9F9" transform="translate(261,181)"/><path d="M0 0 C7.17767819 5.75172877 11.79822207 12.94332607 13.03125 22.12890625 C13.34473575 32.15033772 11.63033987 39.86619127 5.27734375 47.6875 C-0.76640277 54.0799242 -7.60448898 57.94877773 -16.484375 58.59375 C-26.57578862 58.87504376 -33.07240373 57.74088921 -40.78515625 51.0625 C-47.98536515 44.15208279 -52.5371628 37.04265035 -52.84765625 26.9375 C-52.56598846 17.6936751 -49.35074356 10.67233999 -43.16015625 3.8125 C-30.75029702 -7.44295372 -14.41775409 -9.47517488 0 0 Z " fill="#131313" transform="translate(407.47265625,242.625)"/><path d="M0 0 C6.74517522 5.89512859 11.4246942 12.55257324 12.375 21.55078125 C12.72920482 32.56433744 10.76563788 41.03079659 3.1328125 49.17578125 C-4.73147439 55.90219513 -12.70264206 58.4050224 -22.83984375 58.26953125 C-31.98585838 57.48946325 -39.07924827 52.85679438 -45 46 C-51.40291841 37.12832749 -52.27673583 28.53584609 -51 18 C-48.81414807 9.03928535 -42.53915595 2.35259747 -34.875 -2.4375 C-23.63601986 -9.02648676 -10.41548608 -7.24166844 0 0 Z " fill="#131313" transform="translate(142,243)"/>
    <path d="M0 0 C1.73828834 1.73828834 1.4797987 4.1947801 1.75390625 6.56640625 C1.88603516 7.69111328 2.01816406 8.81582031 2.15429688 9.97460938 C2.28900391 11.15861328 2.42371094 12.34261719 2.5625 13.5625 C2.70107422 14.75037109 2.83964844 15.93824219 2.98242188 17.16210938 C3.32547401 20.10762599 3.66322622 23.05375895 4 26 C9.61 26.33 15.22 26.66 21 27 C21 27.33 21 27.66 21 28 C10.18751062 28.03075554 -0.62497384 28.05103156 -11.4375 28.0625 C-12.23883991 28.06335602 -13.04017982 28.06421204 -13.86580276 28.06509399 C-42.25528725 28.09187303 -70.61968887 27.77275668 -99 27 C-95.73159498 23.60271884 -92.35108895 21.22276848 -88.25 18.9375 C-87.31728271 18.41361694 -87.31728271 18.41361694 -86.36572266 17.87915039 C-75.00368139 11.59997174 -75.00368139 11.59997174 -70.7890625 12.44140625 C-70.19867188 12.62574219 -69.60828125 12.81007812 -69 13 C-69.40992188 13.51949219 -69.81984375 14.03898438 -70.2421875 14.57421875 C-70.78101563 15.27160156 -71.31984375 15.96898437 -71.875 16.6875 C-72.40867188 17.37199219 -72.94234375 18.05648437 -73.4921875 18.76171875 C-75.33440023 21.32675562 -75.33440023 21.32675562 -77 26 C-72.38 26 -67.76 26 -63 26 C-63.1546875 24.081875 -63.1546875 24.081875 -63.3125 22.125 C-63.3125 16.44745747 -61.45259465 11.50968536 -58 7 C-51.58457138 3.57920593 -43.8429501 2.68182114 -36.6875 1.9375 C-35.92131348 1.85516113 -35.15512695 1.77282227 -34.36572266 1.68798828 C-22.98797081 0.52322755 -11.44173246 -0.2803097 0 0 Z " fill="#FAFAFA" transform="translate(221,183)"/>
    <path d="M0 0 C5.40567937 4.91332148 8.70873263 9.44653809 9.3125 16.8125 C9.08622474 23.89358467 6.40025968 29.39699335 1.578125 34.5234375 C-3.62211802 39.38901142 -8.94143977 39.58603454 -15.8046875 39.4140625 C-21.91980561 38.62163888 -25.80941593 35.51584208 -29.875 31.0625 C-34.05564465 25.0374533 -34.91910455 19.13499718 -33.640625 11.9921875 C-31.78650439 5.60298811 -27.27483833 1.79497835 -22 -2 C-14.33077187 -5.6812295 -7.00781103 -4.43704438 0 0 Z " fill="#DCDCDC" transform="translate(135,251)"/>
    <path d="M0 0 C0.69754395 -0.00100708 1.39508789 -0.00201416 2.11376953 -0.00305176 C37.18409728 0.03095438 70.28638648 9.1041275 98.625 30.25 C98.955 30.91 99.285 31.57 99.625 32.25 C92.035 32.25 84.445 32.25 76.625 32.25 C76.625 26.25 76.625 26.25 78.125 24.375 C78.8675 23.818125 78.8675 23.818125 79.625 23.25 C57.56696231 10.68529499 36.52532063 6.55143066 11.625 3.25 C11.89763672 3.99685059 12.17027344 4.74370117 12.45117188 5.51318359 C13.67908424 8.8825961 14.90210099 12.25376489 16.125 15.625 C16.76888672 17.3884375 16.76888672 17.3884375 17.42578125 19.1875 C18.03486328 20.86972656 18.03486328 20.86972656 18.65625 22.5859375 C19.03330078 23.62282715 19.41035156 24.6597168 19.79882812 25.72802734 C20.625 28.25 20.625 28.25 20.625 30.25 C17.64577407 30.27683987 14.66678705 30.29676037 11.6875 30.3125 C10.41229492 30.32506836 10.41229492 30.32506836 9.11132812 30.33789062 C8.30244141 30.34111328 7.49355469 30.34433594 6.66015625 30.34765625 C5.9112915 30.35289307 5.16242676 30.35812988 4.39086914 30.36352539 C2.625 30.25 2.625 30.25 1.625 29.25 C1.32651 27.40153557 1.08607178 25.54362103 0.87109375 23.68359375 C0.73896484 22.55888672 0.60683594 21.43417969 0.47070312 20.27539062 C0.33599609 19.09138672 0.20128906 17.90738281 0.0625 16.6875 C-0.07607422 15.49962891 -0.21464844 14.31175781 -0.35742188 13.08789062 C-0.70047648 10.14235278 -1.03948547 7.19640467 -1.375 4.25 C-23.94619551 4.83945898 -23.94619551 4.83945898 -46.375 7.25 C-48.31246094 7.54003906 -48.31246094 7.54003906 -50.2890625 7.8359375 C-54.97154811 8.61873993 -54.97154811 8.61873993 -59.375 10.25 C-60.68018777 13.10284679 -60.68018777 13.10284679 -61.375 16.25 C-61.73335937 16.93578125 -62.09171875 17.6215625 -62.4609375 18.328125 C-63.53952805 20.59593077 -63.77992232 22.50578627 -64 25 C-64.185625 27.10375 -64.185625 27.10375 -64.375 29.25 C-68.995 29.25 -73.615 29.25 -78.375 29.25 C-77.45660162 24.65800812 -77.03498007 23.35508137 -74.3125 19.9375 C-73.76464844 19.24011719 -73.21679688 18.54273438 -72.65234375 17.82421875 C-72.23082031 17.30472656 -71.80929688 16.78523438 -71.375 16.25 C-76.74095899 16.80509921 -80.78549723 18.68465441 -85.5 21.125 C-86.55380859 21.65287109 -86.55380859 21.65287109 -87.62890625 22.19140625 C-90.48531465 23.64390882 -93.09185111 25.03102499 -95.6328125 26.99609375 C-98.39296182 28.98265862 -101.09233334 28.43938461 -104.375 28.25 C-100.05860458 24.47424401 -95.37101769 21.93268561 -90.3125 19.3125 C-89.45906006 18.87010986 -88.60562012 18.42771973 -87.72631836 17.97192383 C-60.46741715 3.97717968 -30.39784502 0.03076705 0 0 Z " fill="#171818" transform="translate(222.375,179.75)"/>
    <path d="M0 0 C4.92418647 2.82252338 9.21001638 7.42003277 11.75 12.5 C11.88559318 15.50474497 11.79299016 18.49068847 11.75 21.5 C6.8 21.17 1.85 20.84 -3.25 20.5 C-2.92 21.82 -2.59 23.14 -2.25 24.5 C-2.91 24.83 -3.57 25.16 -4.25 25.5 C-4.91 25.17 -5.57 24.84 -6.25 24.5 C-5.96125 25.24765625 -5.6725 25.9953125 -5.375 26.765625 C-5.00375 27.75046875 -4.6325 28.7353125 -4.25 29.75 C-3.87875 30.72453125 -3.5075 31.6990625 -3.125 32.703125 C-2.25 35.5 -2.25 35.5 -2.25 39.5 C-1.59 39.83 -0.93 40.16 -0.25 40.5 C-5.16044849 43.27595173 -10.00070509 43.29491679 -15.4375 41.96484375 C-22.52015382 39.51006032 -26.82718818 35.7177343 -30.30078125 29.06640625 C-32.39578241 23.40214384 -32.19876705 17.24407136 -30 11.625 C-23.71146998 0.39548211 -12.55277209 -5.41444522 0 0 Z " fill="#E1E1E1" transform="translate(397.25,248.5)"/>
    <path d="M0 0 C0.84981445 0.16097168 1.69962891 0.32194336 2.57519531 0.48779297 C25.20181703 4.82560387 46.7272579 14.91131398 65 29 C65 29.66 65 30.32 65 31 C62.44276771 32.27861615 60.63262898 32.11336609 57.7734375 32.09765625 C56.7421875 32.09443359 55.7109375 32.09121094 54.6484375 32.08789062 C53.56820312 32.07951172 52.48796875 32.07113281 51.375 32.0625 C49.74304688 32.05573242 49.74304688 32.05573242 48.078125 32.04882812 C45.38536211 32.03701776 42.69270812 32.02054778 40 32 C40 31.67 40 31.34 40 31 C49.9 30.505 49.9 30.505 60 30 C50.58880486 23.48455721 41.32486092 17.67086423 30.92480469 12.88623047 C29.13058829 12.06012627 27.34982157 11.20498238 25.5703125 10.34765625 C6.25870295 1.74282343 -16.01615967 -0.22882298 -36.9375 -0.25 C-37.98071915 -0.25151062 -37.98071915 -0.25151062 -39.04501343 -0.25305176 C-72.98178556 -0.22016213 -113.32341834 4.24648378 -141 26 C-140.01 26.66 -139.02 27.32 -138 28 C-139 29 -139 29 -141.06640625 29.09765625 C-141.89011719 29.08605469 -142.71382813 29.07445312 -143.5625 29.0625 C-144.38878906 29.05347656 -145.21507812 29.04445312 -146.06640625 29.03515625 C-146.70449219 29.02355469 -147.34257812 29.01195312 -148 29 C-148 28.01 -148 27.02 -148 26 C-138.16401059 18.09836101 -125.43360284 13.09556574 -114 8 C-113.20891846 7.63922363 -112.41783691 7.27844727 -111.6027832 6.90673828 C-104.76824994 3.95557282 -97.88311335 2.59727026 -90.5625 1.375 C-89.31533203 1.16335205 -88.06816406 0.9517041 -86.78320312 0.73364258 C-83.19155426 0.13665856 -79.59711065 -0.43697857 -76 -1 C-75.1529248 -1.13712402 -74.30584961 -1.27424805 -73.43310547 -1.41552734 C-49.81903816 -5.10083963 -23.39888501 -4.8185434 0 0 Z " fill="#D2D2D2" transform="translate(261,181)"/>
    <path d="M0 0 C2.3125 1.0625 2.3125 1.0625 3.625 3.125 C5.23652767 10.01061825 4.62285728 15.84940406 1.3125 22.0625 C-3.06663538 28.69412168 -3.06663538 28.69412168 -7.4375 29.6875 C-9.6875 29.0625 -9.6875 29.0625 -11.6875 26.0625 C-12.6775 28.5375 -12.6775 28.5375 -13.6875 31.0625 C-15.9975 31.0625 -18.3075 31.0625 -20.6875 31.0625 C-22.19142689 25.74469314 -20.71676638 21.86637981 -19.18359375 16.70703125 C-19.01988281 15.83433594 -18.85617188 14.96164062 -18.6875 14.0625 C-19.3475 13.4025 -20.0075 12.7425 -20.6875 12.0625 C-20.3125 9.4375 -20.3125 9.4375 -19.6875 7.0625 C-18.0375 7.3925 -16.3875 7.7225 -14.6875 8.0625 C-14.3575 9.0525 -14.0275 10.0425 -13.6875 11.0625 C-7.2525 10.5675 -7.2525 10.5675 -0.6875 10.0625 C-4.5601592 9.0943352 -7.72361362 8.98627142 -11.6875 9.0625 C-11.3575 8.0725 -11.0275 7.0825 -10.6875 6.0625 C-9.6975 6.0625 -8.7075 6.0625 -7.6875 6.0625 C-7.6875 5.4025 -7.6875 4.7425 -7.6875 4.0625 C-5.12189936 1.49689936 -3.69778388 0.08599497 0 0 Z " fill="#E8E8E8" transform="translate(139.6875,257.9375)"/>
    <path d="M0 0 C2.31 0 4.62 0 7 0 C7.33 2.64 7.66 5.28 8 8 C8.99 5.69 9.98 3.38 11 1 C12.98 1.99 14.96 2.98 17 4 C15.5140084 8.59306496 13.14985318 11.43569245 10 15 C13.3 13.02 16.6 11.04 20 9 C23.08669204 12.08669204 23.44855089 12.91927658 24 17 C22.27192682 17.33895656 20.54248026 17.67091525 18.8125 18 C17.84957031 18.185625 16.88664062 18.37125 15.89453125 18.5625 C13.2065794 18.96877612 10.71228981 19.07933572 8 19 C7.67 19.99 7.34 20.98 7 22 C5.35 22.33 3.7 22.66 2 23 C1.76796875 22.35417969 1.5359375 21.70835937 1.296875 21.04296875 C0.18924546 18.78698245 0.18924546 18.78698245 -2.171875 18.42578125 C-3.02265625 18.38839844 -3.8734375 18.35101563 -4.75 18.3125 C-5.63945312 18.25835937 -6.52890625 18.20421875 -7.4453125 18.1484375 C-8.28835938 18.09945313 -9.13140625 18.05046875 -10 18 C-12.00360906 17.68909515 -14.0059626 17.36732268 -16 17 C-15.50351065 12.53159589 -15.31012244 11.31012244 -12 8 C-9.03 10.31 -6.06 12.62 -3 15 C-2.67 14.67 -2.34 14.34 -2 14 C-4.64 11.36 -7.28 8.72 -10 6 C-8.68 4.68 -7.36 3.36 -6 2 C-3.60510457 2.74324341 -2.29222384 3.47057354 -1.06640625 5.69140625 C-0.32780077 7.44073501 0.34049685 9.21934149 1 11 C0.67 7.37 0.34 3.74 0 0 Z " fill="#D6D6D6" transform="translate(384,249)"/>
    <path d="M0 0 C0.33 0.99 0.66 1.98 1 3 C5.95 3.33 10.9 3.66 16 4 C16 3.34 16 2.68 16 2 C16.66 2.33 17.32 2.66 18 3 C18.144375 3.804375 18.28875 4.60875 18.4375 5.4375 C18.76502717 8.34440658 18.76502717 8.34440658 22 10 C21.01 10 20.02 10 19 10 C18.2717552 14.99367864 17.61512818 19.99109914 17 25 C19.31 25 21.62 25 24 25 C24.33 23.35 24.66 21.7 25 20 C25.99 20.66 26.98 21.32 28 22 C28 22.66 28 23.32 28 24 C29.32 23.67 30.64 23.34 32 23 C28.376348 26.78836346 26.13054045 27.21648022 20.875 27.375 C13.57310595 27.31052411 9.66177753 25.50216159 4.4765625 20.54296875 C0.40133511 16.0790636 -1.08045414 11.68034085 -1.1875 5.75 C-1 2 -1 2 0 0 Z " fill="#EDEDED" transform="translate(102,263)"/>
    <path d="M0 0 C0.68707031 0.37253906 1.37414062 0.74507812 2.08203125 1.12890625 C9.8582942 5.99118831 13.80299026 14.37591698 16 23 C17.06156217 27.72877693 17.08314309 32.17770063 17 37 C15.0234375 36.3671875 15.0234375 36.3671875 13 35 C12.6015625 32.3828125 12.6015625 32.3828125 12.625 29.125 C12.17154822 20.01565751 8.92240582 12.39229575 2.3125 6 C-6.14699729 -0.55290604 -15.52289957 -2.09025664 -26 -1 C-34.21576953 0.61825763 -40.40838531 4.42177683 -45.25 11.25 C-48.88023916 17.05838266 -50.91132996 23.25024573 -52 30 C-52.99 29.67 -53.98 29.34 -55 29 C-54.7721379 19.26407383 -51.96461961 11.83099751 -45.25 4.6875 C-32.39995951 -7.33507576 -15.16595097 -8.38423936 0 0 Z " fill="#EBEBEB" transform="translate(407,239)"/>
    <path d="M0 0 C7.1951352 -0.47614865 13.09587359 -0.49956581 19 4 C26.89895841 11.76091836 26.89895841 11.76091836 27.09765625 16.1640625 C27.06510417 18.44270833 27.03255208 20.72135417 27 23 C22.05 22.67 17.1 22.34 12 22 C12.33 23.32 12.66 24.64 13 26 C12.34 26.33 11.68 26.66 11 27 C10.34 26.67 9.68 26.34 9 26 C9.28875 26.74765625 9.5775 27.4953125 9.875 28.265625 C10.24625 29.25046875 10.6175 30.2353125 11 31.25 C11.37125 32.22453125 11.7425 33.1990625 12.125 34.203125 C13 37 13 37 13 41 C13.66 41.33 14.32 41.66 15 42 C12.03 42.495 12.03 42.495 9 43 C8.34 37.39 7.68 31.78 7 26 C6.01 25.67 5.02 25.34 4 25 C5.65 24.67 7.3 24.34 9 24 C9.33 22.68 9.66 21.36 10 20 C15.28 19.67 20.56 19.34 26 19 C24.515 15.535 24.515 15.535 23 12 C22.46890625 12.26554687 21.9378125 12.53109375 21.390625 12.8046875 C17.92708333 14.53645833 14.46354167 16.26822917 11 18 C12.16293865 15.25123592 13.64729453 13.13339258 15.5625 10.875 C17.96006418 8.27761964 17.96006418 8.27761964 19 6 C17.02 5.34 15.04 4.68 13 4 C12.01 6.31 11.02 8.62 10 11 C9.67 11 9.34 11 9 11 C9 8.03 9 5.06 9 2 C6.69 2 4.38 2 2 2 C2.33 3.010625 2.66 4.02125 3 5.0625 C4.07001321 8.75479911 4.15704155 12.15248207 4 16 C1.07532192 11.61298287 -1.17628972 7.93918687 -0.6875 2.5625 C-0.460625 1.716875 -0.23375 0.87125 0 0 Z " fill="#E3E3E3" transform="translate(382,247)"/>
    <path d="M0 0 C3.83331699 -0.02929981 7.66660471 -0.04689897 11.5 -0.0625 C12.57765625 -0.07087891 13.6553125 -0.07925781 14.765625 -0.08789062 C20.61328382 -0.10571885 26.21863671 0.10894037 32 1 C32 5 32 5 30.64453125 7.69921875 C26.63071461 11.19129851 22.85421441 10.87365504 17.6875 10.8125 C16.73721924 10.80911621 15.78693848 10.80573242 14.80786133 10.80224609 C10.58537017 10.6473125 7.74334993 10.43790428 4.0625 8.26953125 C1.78031444 5.65928152 0 3.55406174 0 0 Z " fill="#F2F2F2" transform="translate(424,233)"/>
    <path d="M0 0 C0.33 0 0.66 0 1 0 C1.60988001 7.56251214 0.27880658 12.68315837 -4 19 C-6.09999661 21.35273143 -8.18909496 23.52793836 -11 25 C-11.99 24.67 -12.98 24.34 -14 24 C-15.16796875 21.3828125 -15.16796875 21.3828125 -16.1875 18.125 C-16.53167969 17.05507813 -16.87585938 15.98515625 -17.23046875 14.8828125 C-18 12 -18 12 -18 9 C-17.01 8.67 -16.02 8.34 -15 8 C-15 7.01 -15 6.02 -15 5 C-10.38 5 -5.76 5 -1 5 C-0.67 3.35 -0.34 1.7 0 0 Z " fill="#DFDFDF" transform="translate(409,264)"/>
    <path d="M0 0 C2.23440587 1.87726723 4.05572274 3.80645642 6 6 C5.67 6.99 5.34 7.98 5 9 C3.68 9 2.36 9 1 9 C-1.20067421 9.93283296 -1.20067421 9.93283296 -3 11 C-3 11.66 -3 12.32 -3 13 C-3.99 13 -4.98 13 -6 13 C-6 13.66 -6 14.32 -6 15 C-5.39671875 14.97679687 -4.7934375 14.95359375 -4.171875 14.9296875 C-2.97304687 14.90261719 -2.97304687 14.90261719 -1.75 14.875 C-0.56664062 14.84019531 -0.56664062 14.84019531 0.640625 14.8046875 C3.20731941 15.0171622 4.7916067 15.71345895 7 17 C3.67521742 18.10826086 0.99994522 18.23761378 -2.5 18.3125 C-3.6446875 18.34988281 -4.789375 18.38726562 -5.96875 18.42578125 C-9 18 -9 18 -10.98828125 16.49609375 C-12.50361105 12.75750015 -11.56198797 9.5427984 -10.6875 5.75 C-10.53087891 5.00492187 -10.37425781 4.25984375 -10.21289062 3.4921875 C-9.82487637 1.65793829 -9.41458514 -0.17157324 -9 -2 C-11.31 -2 -13.62 -2 -16 -2 C-16.33 -1.01 -16.66 -0.02 -17 1 C-17.66 1.66 -18.32 2.32 -19 3 C-19 2.01 -19 1.02 -19 0 C-19.99 -0.33 -20.98 -0.66 -22 -1 C-15.92461426 -7.07538574 -6.49346244 -3.88196124 0 0 Z " fill="#E4E4E4" transform="translate(135,251)"/>
    <path d="M0 0 C10.84064821 -0.56242014 18.97452043 2.9168715 27.01171875 10.09375 C28.44366099 11.47390817 29.86627709 12.86419752 31.26171875 14.28125 C30.27171875 15.27125 29.28171875 16.26125 28.26171875 17.28125 C27.14796875 15.734375 27.14796875 15.734375 26.01171875 14.15625 C21.00948352 8.40426523 14.45966497 4.87816077 6.91015625 3.8046875 C-3.82593305 3.52811377 -11.7259403 6.14497366 -19.73828125 13.28125 C-26.29508154 20.02018363 -28.35591245 28.1235172 -28.73828125 37.28125 C-29.06828125 37.28125 -29.39828125 37.28125 -29.73828125 37.28125 C-29.95484375 35.92 -29.95484375 35.92 -30.17578125 34.53125 C-30.63427946 31.47304446 -30.63427946 31.47304446 -31.3359375 29.33984375 C-32.26508055 24.58587881 -29.72472311 19.95988259 -27.36328125 15.94140625 C-22.08030973 8.51222755 -14.05529984 2.14394885 -4.8828125 0.5 C-3.25514308 0.33397179 -1.62755289 0.16716663 0 0 Z " fill="#E8E8E9" transform="translate(119.73828125,233.71875)"/>
    <path d="M0 0 C1.12688232 -0.00193359 2.25376465 -0.00386719 3.41479492 -0.00585938 C5.19333862 0.0009082 5.19333862 0.0009082 7.0078125 0.0078125 C8.21477783 0.00974609 9.42174316 0.01167969 10.6652832 0.01367188 C19.19245356 0.0549019 27.64198306 0.33635279 36.1328125 1.1328125 C35.8028125 2.1228125 35.4728125 3.1128125 35.1328125 4.1328125 C35.6278125 5.1228125 35.6278125 5.1228125 36.1328125 6.1328125 C28.11419654 7.62586209 20.203436 6.78957556 12.1328125 6.1953125 C10.67583022 6.09369649 9.21879904 5.99277896 7.76171875 5.89257812 C4.21814966 5.64738039 0.6753372 5.39271217 -2.8671875 5.1328125 C-2.2071875 4.4728125 -1.5471875 3.8128125 -0.8671875 3.1328125 C-4.1671875 2.8028125 -7.4671875 2.4728125 -10.8671875 2.1328125 C-10.8671875 1.8028125 -10.8671875 1.4728125 -10.8671875 1.1328125 C-7.18393753 0.28386933 -3.77660689 0.00421967 0 0 Z " fill="#1C1C1C" transform="translate(211.8671875,171.8671875)"/>
    <path d="M0 0 C-0.40992188 0.50789062 -0.81984375 1.01578125 -1.2421875 1.5390625 C-1.78101563 2.22742188 -2.31984375 2.91578125 -2.875 3.625 C-3.40867188 4.29789063 -3.94234375 4.97078125 -4.4921875 5.6640625 C-6.42511927 8.44601483 -6.42511927 8.44601483 -8 14 C-15.26 14 -22.52 14 -30 14 C-26.54450351 10.54450351 -23.43473859 8.26938094 -19.25 5.9375 C-18.31728271 5.41361694 -18.31728271 5.41361694 -17.36572266 4.87915039 C-5.45506448 -1.70321882 -5.45506448 -1.70321882 0 0 Z " fill="#F4F4F4" transform="translate(152,196)"/>
    <path d="M0 0 C11.64141526 2.93420917 20.53637237 8.02430477 26.86328125 18.5625 C30.27419351 25.87662113 31.47087093 33.99519417 31 42 C29.0234375 41.3671875 29.0234375 41.3671875 27 40 C26.6015625 37.3828125 26.6015625 37.3828125 26.625 34.125 C26.17154822 25.01565751 22.92240582 17.39229575 16.3125 11 C8.90826549 5.21764543 0.2082667 3.39949096 -9 3 C-9 2.67 -9 2.34 -9 2 C-6.03 2 -3.06 2 0 2 C0 1.34 0 0.68 0 0 Z " fill="#E9E9E9" transform="translate(393,234)"/>
    <path d="M0 0 C4.86844869 2.05176766 9.08918443 5.51416763 13.11328125 8.890625 C13.11328125 9.220625 13.11328125 9.550625 13.11328125 9.890625 C5.52328125 9.890625 -2.06671875 9.890625 -9.88671875 9.890625 C-9.88671875 3.890625 -9.88671875 3.890625 -7.82421875 1.453125 C-4.9252561 -0.08887641 -3.24019361 -0.66097076 0 0 Z " fill="#101011" transform="translate(308.88671875,202.109375)"/>
    <path d="M0 0 C3.29164829 -0.02895225 6.58326399 -0.0467823 9.875 -0.0625 C10.81214844 -0.07087891 11.74929687 -0.07925781 12.71484375 -0.08789062 C14.05869141 -0.09272461 14.05869141 -0.09272461 15.4296875 -0.09765625 C16.67081299 -0.10551147 16.67081299 -0.10551147 17.93701172 -0.11352539 C20 0 20 0 22 1 C22 1.66 22 2.32 22 3 C16.61374802 8.26099031 12.27803198 8.53747006 4.890625 8.46875 C2 8 2 8 0.046875 6.78125 C-1 5 -1 5 -0.6875 2.3125 C-0.460625 1.549375 -0.23375 0.78625 0 0 Z " fill="#F7F7F7" transform="translate(42,218)"/>
    <path d="M0 0 C-1 3 -1 3 -4 4.5078125 C-5.32992166 5.05523788 -6.66356209 5.59368101 -8 6.125 C-14.31565312 8.75188376 -20.40336648 11.65275205 -26.4375 14.875 C-27.17677734 15.2683252 -27.91605469 15.66165039 -28.67773438 16.06689453 C-32.04850984 17.73383592 -32.04850984 17.73383592 -35 20 C-34.01 20.66 -33.02 21.32 -32 22 C-33 23 -33 23 -35.06640625 23.09765625 C-35.89011719 23.08605469 -36.71382813 23.07445312 -37.5625 23.0625 C-38.38878906 23.05347656 -39.21507813 23.04445312 -40.06640625 23.03515625 C-41.02353516 23.01775391 -41.02353516 23.01775391 -42 23 C-42 22.01 -42 21.02 -42 20 C-32.30107969 12.20847404 -12.50800926 0 0 0 Z " fill="#DBDBDB" transform="translate(155,187)"/>
    <path d="M0 0 C8.57228595 -1.67536533 16.61676568 0.66507154 24 5 C27.55939419 7.79333035 30.82660825 10.7774628 34 14 C33.01 14.99 32.02 15.98 31 17 C29.88625 15.453125 29.88625 15.453125 28.75 13.875 C22.98213748 7.26010872 15.45443432 3.94374155 6.80444336 3.23583984 C3.86912412 3.07747562 0.93932794 3.00803095 -2 3 C-1.34 2.01 -0.68 1.02 0 0 Z " fill="#ECECEC" transform="translate(117,234)"/>
    <path d="M0 0 C0.99 0 1.98 0 3 0 C3.53251766 1.91345327 4.05059483 3.8309295 4.5625 5.75 C4.85253906 6.81734375 5.14257812 7.8846875 5.44140625 8.984375 C5.97098494 11.84335927 5.98370862 13.31597383 5 16 C2.69 16 0.38 16 -2 16 C-3.13314263 11.89517207 -2.78328091 9.24049263 -1.5625 5.1875 C-1.27503906 4.21167969 -0.98757812 3.23585938 -0.69140625 2.23046875 C-0.46324219 1.49441406 -0.23507813 0.75835937 0 0 Z " fill="#1E1E1E" transform="translate(121,273)"/>
    <path d="M0 0 C0 0.66 0 1.32 0 2 C3.3 2 6.6 2 10 2 C10 2.33 10 2.66 10 3 C-2.10986328 3.86499023 -2.10986328 3.86499023 -14.21972656 4.72998047 C-16.09096191 4.86364014 -16.09096191 4.86364014 -18 5 C-18.66688843 5.04763489 -19.33377686 5.09526978 -20.02087402 5.14434814 C-21.0271283 5.21622345 -21.0271283 5.21622345 -22.05371094 5.28955078 C-27.02685547 5.64477539 -27.02685547 5.64477539 -32 6 C-32 5.34 -32 4.68 -32 4 C-29.50056796 3.51770668 -27.00051757 3.03910574 -24.5 2.5625 C-23.80390625 2.42779297 -23.1078125 2.29308594 -22.390625 2.15429688 C-14.89891647 0.73225961 -7.63660563 -0.13636796 0 0 Z " fill="#1D1D1D" transform="translate(203,181)"/>
    <path d="M0 0 C0.99 0 1.98 0 3 0 C3.33951619 1.56116819 3.67132544 3.12401338 4 4.6875 C4.185625 5.55761719 4.37125 6.42773438 4.5625 7.32421875 C4.98972047 9.93712964 5.07616201 12.35813038 5 15 C2.36 15 -0.28 15 -3 15 C-2.44854729 9.76119922 -1.57077907 5.02649303 0 0 Z " fill="#171617" transform="translate(386,274)"/>
    <path d="M0 0 C-1.63958758 5.23272633 -3.38952035 10.15196636 -6 15 C-9.66521894 13.0709374 -11.3327868 11.77070649 -13 8 C-11.2126038 6.66094733 -9.41995047 5.32890934 -7.625 4 C-6.62726563 3.2575 -5.62953125 2.515 -4.6015625 1.75 C-2 0 -2 0 0 0 Z " fill="#161616" transform="translate(385,272)"/>
    <path d="M0 0 C4.98012761 1.50912958 8.24259942 4.55661849 12 8 C10.63016497 11.16115776 10.0109362 11.9927092 7 14 C6.01 14 5.02 14 4 14 C3.32739649 12.23141309 2.66211605 10.46003984 2 8.6875 C1.62875 7.70136719 1.2575 6.71523438 0.875 5.69921875 C0 3 0 3 0 0 Z " fill="#171717" transform="translate(391,273)"/>
    <path d="M0 0 C4.67105792 1.55701931 8.08705685 4.08447373 12 7 C10.61122646 10.35620271 9.08322035 12.07298728 6 14 C5.34 14 4.68 14 4 14 C3.32739649 12.23141309 2.66211605 10.46003984 2 8.6875 C1.62875 7.70136719 1.2575 6.71523438 0.875 5.69921875 C0 3 0 3 0 0 Z " fill="#191919" transform="translate(126,273)"/>
    <path d="M0 0 C-0.51525603 5.28137429 -2.25477117 8.57221156 -5 13 C-9.67692308 11.52307692 -9.67692308 11.52307692 -11.3125 8.875 C-11.539375 8.25625 -11.76625 7.6375 -12 7 C-3.55172414 0 -3.55172414 0 0 0 Z " fill="#131313" transform="translate(119,273)"/>
    <path d="M0 0 C1.44319692 0.90767102 2.87934106 1.82656106 4.3125 2.75 C5.11300781 3.26046875 5.91351563 3.7709375 6.73828125 4.296875 C9.00368861 6.00277761 10.42684167 7.65808145 12 10 C6.87416389 10.10251672 2.05002222 10.03590199 -3 9 C-2.5020163 5.26512223 -2.12508244 3.18762365 0 0 Z " fill="#1C1C1C" transform="translate(371,257)"/>
    <path d="M0 0 C4.62 0 9.24 0 14 0 C13.67 2.31 13.34 4.62 13 7 C10.34501768 8.0169313 9.30844625 8.13022151 6.640625 7.00390625 C5.85171875 6.52824219 5.0628125 6.05257813 4.25 5.5625 C3.45078125 5.08941406 2.6515625 4.61632812 1.828125 4.12890625 C1.22484375 3.75636719 0.6215625 3.38382812 0 3 C0 2.01 0 1.02 0 0 Z " fill="#141414" transform="translate(394,269)"/>
    <path d="M0 0 C1.08667969 0.01804687 2.17335937 0.03609375 3.29296875 0.0546875 C4.54013672 0.08949219 4.54013672 0.08949219 5.8125 0.125 C5.4825 2.765 5.1525 5.405 4.8125 8.125 C-0.89379354 7.69702798 -4.59828616 5.28154048 -9.1875 2.125 C-5.66070901 -0.22619399 -4.15870515 -0.08943452 0 0 Z " fill="#242424" transform="translate(136.1875,268.875)"/>
    <path d="M0 0 C2.79233071 2.55277419 3.48967606 4.22360282 4 8 C-1.05002222 9.03590199 -5.87416389 9.10251672 -11 9 C-9.72648692 5.17946076 -8.37362475 4.76978625 -4.9375 2.8125 C-4.01839844 2.28269531 -3.09929687 1.75289063 -2.15234375 1.20703125 C-1.44207031 0.80871094 -0.73179687 0.41039062 0 0 Z " fill="#141414" transform="translate(404,258)"/>
    <path d="M0 0 C1.09570312 0.00902344 2.19140625 0.01804687 3.3203125 0.02734375 C4.16335937 0.03894531 5.00640625 0.05054688 5.875 0.0625 C5.875 1.0525 5.875 2.0425 5.875 3.0625 C4.27467863 3.90319415 2.66958829 4.73481505 1.0625 5.5625 C-0.27748047 6.25859375 -0.27748047 6.25859375 -1.64453125 6.96875 C-4.125 8.0625 -4.125 8.0625 -7.125 8.0625 C-7.455 5.7525 -7.785 3.4425 -8.125 1.0625 C-5.36047967 -0.31976016 -3.0788637 -0.03275387 0 0 Z " fill="#1A1A1A" transform="translate(111.125,268.9375)"/>
    <path d="M0 0 C4.62 0 9.24 0 14 0 C11.88420339 4.23159323 11.56369804 4.58757808 7.5 6.25 C6.7059375 6.58515625 5.911875 6.9203125 5.09375 7.265625 C3 8 3 8 1 8 C0 6 0 6 0 0 Z " fill="#141414" transform="translate(368,269)"/>
    <path d="M0 0 C4.17189634 1.48609294 7.62853826 3.55302175 11.3125 6 C12.38113281 6.70125 13.44976562 7.4025 14.55078125 8.125 C15.76314453 9.053125 15.76314453 9.053125 17 10 C17 10.66 17 11.32 17 12 C14.44276771 13.27861615 12.63262898 13.11336609 9.7734375 13.09765625 C8.7421875 13.09443359 7.7109375 13.09121094 6.6484375 13.08789062 C5.02808594 13.07532227 5.02808594 13.07532227 3.375 13.0625 C1.74304688 13.05573242 1.74304688 13.05573242 0.078125 13.04882812 C-2.61463789 13.03701776 -5.30729188 13.02054778 -8 13 C-8 12.67 -8 12.34 -8 12 C1.9 11.505 1.9 11.505 12 11 C10.02 9.741875 8.04 8.48375 6 7.1875 C2.625 5.04296875 2.625 5.04296875 0 3 C0 2.01 0 1.02 0 0 Z " fill="#C5C5C5" transform="translate(309,200)"/>
    <path d="M0 0 C0.99 0.33 1.98 0.66 3 1 C0.78065836 4.32901247 -0.34683329 4.75023244 -4 6 C-3.60167969 6.45890625 -3.20335937 6.9178125 -2.79296875 7.390625 C-0.08857938 10.52271585 2.57991771 13.63877459 5 17 C1.50155614 16.36610765 -0.84086876 14.94822306 -3.75 12.9375 C-4.54921875 12.38964844 -5.3484375 11.84179688 -6.171875 11.27734375 C-6.77515625 10.85582031 -7.3784375 10.43429687 -8 10 C-8.66 11.32 -9.32 12.64 -10 14 C-10.66 14 -11.32 14 -12 14 C-9.7425023 7.4156317 -6.09760106 3.37314101 0 0 Z " fill="#D7D7D7" transform="translate(379,248)"/>
    <path d="M0 0 C1.67542976 0.28604898 3.34385343 0.61781233 5 1 C5.33 1.99 5.66 2.98 6 4 C8.01508358 4.73323796 8.01508358 4.73323796 10 5 C9.01 5.66 8.02 6.32 7 7 C7.55312735 11.02992782 8.1558062 15.02022924 9 19 C8.01 19.33 7.02 19.66 6 20 C5.34 15.71 4.68 11.42 4 7 C2.68 6.67 1.36 6.34 0 6 C-0.38218767 4.34385343 -0.71395102 2.67542976 -1 1 C-0.67 0.67 -0.34 0.34 0 0 Z " fill="#CCCCCC" transform="translate(120,265)"/>
    <path d="M0 0 C2.31 0 4.62 0 7 0 C6.85866501 1.77119803 6.71176792 3.54195287 6.5625 5.3125 C6.48128906 6.29863281 6.40007812 7.28476562 6.31640625 8.30078125 C6 11 6 11 5 14 C4.01 14 3.02 14 2 14 C-0.29612756 4.58997722 -0.29612756 4.58997722 0 0 Z " fill="#141414" transform="translate(119,249)"/>
    <path d="M0 0 C0.67057887 1.7902061 1.3363469 3.58221489 2 5.375 C2.556875 6.87160156 2.556875 6.87160156 3.125 8.3984375 C4 11 4 11 4 13 C0.37386801 12.43040847 -1.25517741 11.07625466 -3.75 8.4375 C-4.36359375 7.79683594 -4.9771875 7.15617187 -5.609375 6.49609375 C-6.29773438 5.75552734 -6.29773438 5.75552734 -7 5 C-5.64703851 0.94111554 -4.27479763 0 0 0 Z " fill="#141414" transform="translate(116,251)"/>
    <path d="M0 0 C2.475 0.99 2.475 0.99 5 2 C5 6 5 6 3.25 8.140625 C2.5075 8.83671875 1.765 9.5328125 1 10.25 C0.2575 10.95640625 -0.485 11.6628125 -1.25 12.390625 C-1.8275 12.92171875 -2.405 13.4528125 -3 14 C-3.66 13.67 -4.32 13.34 -5 13 C-4.54803755 11.39402675 -4.08817673 9.79027492 -3.625 8.1875 C-3.36976562 7.29417969 -3.11453125 6.40085937 -2.8515625 5.48046875 C-2 3 -2 3 0 0 Z " fill="#171616" transform="translate(130,251)"/>
    <path d="M0 0 C2.31 0 4.62 0 7 0 C7 0.33 7 0.66 7 1 C5.35 1 3.7 1 2 1 C2.33 3.64 2.66 6.28 3 9 C3.84304688 8.57847656 4.68609375 8.15695312 5.5546875 7.72265625 C9.36979167 5.81510417 13.18489583 3.90755208 17 2 C16.64880827 4.83417891 16.21508776 5.81648089 14.00390625 7.703125 C13.19824219 8.21359375 12.39257812 8.7240625 11.5625 9.25 C10.75941406 9.77078125 9.95632813 10.2915625 9.12890625 10.828125 C7 12 7 12 5 12 C4.67 12.66 4.34 13.32 4 14 C0.75099398 9.02495953 -0.49940808 6.11774896 0 0 Z " fill="#D4D4D4" transform="translate(366,268)"/>
    <path d="M0 0 C1.98 0.99 3.96 1.98 6 3 C4.59835111 7.76560621 1.84588526 10.95882443 -2 14 C-2.66 14 -3.32 14 -4 14 C-3.46148032 8.72250715 -2.22656164 4.74354436 0 0 Z " fill="#191919" transform="translate(395,250)"/>
    <path d="M0 0 C-0.66 0.66 -1.32 1.32 -2 2 C-2.66 2 -3.32 2 -4 2 C-4.268125 2.804375 -4.53625 3.60875 -4.8125 4.4375 C-5.204375 5.283125 -5.59625 6.12875 -6 7 C-6.99 7.33 -7.98 7.66 -9 8 C-8.67 5.03 -8.34 2.06 -8 -1 C-10.31 -1 -12.62 -1 -15 -1 C-15.33 -0.01 -15.66 0.98 -16 2 C-16.66 2.66 -17.32 3.32 -18 4 C-18 3.01 -18 2.02 -18 1 C-18.99 0.67 -19.98 0.34 -21 0 C-15.18875928 -5.81124072 -6.637456 -2.79471832 0 0 Z " fill="#D9D9D9" transform="translate(134,250)"/>
    <path d="M0 0 C7.47834967 0.48827713 14.68925318 1.33405548 22 3 C21.67 3.99 21.34 4.98 21 6 C19.87722656 5.86722656 18.75445312 5.73445312 17.59765625 5.59765625 C10.06755768 4.70859875 2.53774489 3.82229944 -5 3 C-5 2.67 -5 2.34 -5 2 C-3.35 2 -1.7 2 0 2 C0 1.34 0 0.68 0 0 Z " fill="#272727" transform="translate(244,181)"/>
    <path d="M0 0 C2.98683456 1.04162718 3.8550651 1.70207827 5.265625 4.6015625 C5.59046875 5.59929687 5.9153125 6.59703125 6.25 7.625 C6.58515625 8.62789063 6.9203125 9.63078125 7.265625 10.6640625 C7.50796875 11.43492187 7.7503125 12.20578125 8 13 C4.12488273 12.45015228 2.40423494 10.72444669 -0.25 7.9375 C-0.95640625 7.20402344 -1.6628125 6.47054688 -2.390625 5.71484375 C-2.92171875 5.14894531 -3.4528125 4.58304688 -4 4 C-2.68 2.68 -1.36 1.36 0 0 Z " fill="#121213" transform="translate(378,251)"/>
    <path d="M0 0 C0.33 0 0.66 0 1 0 C1.66 3.96 2.32 7.92 3 12 C5.79947917 10.69791667 8.59895833 9.39583333 11.3984375 8.09375 C14 7 14 7 16 7 C16.33 6.01 16.66 5.02 17 4 C17 4.99 17 5.98 17 7 C17.66 7 18.32 7 19 7 C18.67 7.99 18.34 8.98 18 10 C18 9.34 18 8.68 18 8 C16.41499412 8.9346695 14.83206584 9.87286263 13.25 10.8125 C12.36828125 11.33457031 11.4865625 11.85664063 10.578125 12.39453125 C8.28027203 13.82546696 6.13493054 15.33894423 4 17 C0.92291196 11.06561592 -0.48736475 6.70126536 0 0 Z " fill="#DDDDDD" transform="translate(101,265)"/>
    <path d="M0 0 C-1.17744585 3.53233755 -1.95605641 3.86308075 -5.0625 5.6875 C-5.79597656 6.12449219 -6.52945313 6.56148437 -7.28515625 7.01171875 C-7.85105469 7.33785156 -8.41695312 7.66398438 -9 8 C-8.01 8.66 -7.02 9.32 -6 10 C-7 11 -7 11 -9.06640625 11.09765625 C-9.89011719 11.08605469 -10.71382813 11.07445312 -11.5625 11.0625 C-12.38878906 11.05347656 -13.21507813 11.04445312 -14.06640625 11.03515625 C-14.70449219 11.02355469 -15.34257813 11.01195312 -16 11 C-16 10.01 -16 9.02 -16 8 C-13.91493174 6.44437846 -11.91800043 5.12330419 -9.6875 3.8125 C-9.09259766 3.44447266 -8.49769531 3.07644531 -7.88476562 2.69726562 C-5.04902949 0.9894871 -3.36630285 0 0 0 Z " fill="#E0E1E0" transform="translate(129,199)"/>
    <path d="M0 0 C5.92567127 0.50948232 10.44258022 2.32084016 15.75 4.9375 C16.50410156 5.29779297 17.25820313 5.65808594 18.03515625 6.02929688 C21.18578853 7.54865152 24.08098124 9.0539875 27 11 C26.67 11.99 26.34 12.98 26 14 C17.33333333 9.66666667 8.66666667 5.33333333 0 1 C0 0.67 0 0.34 0 0 Z " fill="#E6E6E6" transform="translate(282,188)"/>
    <path d="M0 0 C3.48897679 0.64610681 6.06769549 2.01871317 9 4 C9.33 4.66 9.66 5.32 10 6 C10.99 6.66 11.98 7.32 13 8 C7.87416389 8.10251672 3.05002222 8.03590199 -2 7 C-1.34 4.69 -0.68 2.38 0 0 Z " fill="#1D1D1D" transform="translate(105,259)"/>
    <path d="M0 0 C0.99 0.33 1.98 0.66 3 1 C3.33 2.98 3.66 4.96 4 7 C-0.50353262 8.75747614 -4.17639811 9.19294408 -9 9 C-8.67 8.01 -8.34 7.02 -8 6 C-7.01 6 -6.02 6 -5 6 C-5 5.34 -5 4.68 -5 4 C-2.6875 1.8125 -2.6875 1.8125 0 0 Z " fill="#181818" transform="translate(137,258)"/>
    <path d="M0 0 C2.31 0 4.62 0 7 0 C6.85795259 1.58367747 6.71119847 3.16693318 6.5625 4.75 C6.48128906 5.63171875 6.40007812 6.5134375 6.31640625 7.421875 C6.03761535 9.69350452 5.61209423 11.79851823 5 14 C4.34 14 3.68 14 3 14 C2.01 9.38 1.02 4.76 0 0 Z " fill="#141414" transform="translate(384,249)"/>
    <path d="M0 0 C3.63 0 7.26 0 11 0 C9 2 9 2 5.375 2.125 C4.26125 2.08375 3.1475 2.0425 2 2 C2.33 3.010625 2.66 4.02125 3 5.0625 C4.07001321 8.75479911 4.15704155 12.15248207 4 16 C1.07532192 11.61298287 -1.17628972 7.93918687 -0.6875 2.5625 C-0.460625 1.716875 -0.23375 0.87125 0 0 Z " fill="#E2E2E2" transform="translate(382,247)"/>
    <path d="M0 0 C7.486774 0.2798794 13.36270688 1.47649871 20 5 C20 5.66 20 6.32 20 7 C13.4016516 6.40015015 7.11110263 4.55432523 1 2 C0.67 1.34 0.34 0.68 0 0 Z " fill="#171717" transform="translate(264,185)"/>
    <path d="M0 0 C0.99 0.33 1.98 0.66 3 1 C2.47035128 3.29514445 1.8404984 5.41869171 1 7.625 C-0.3104546 12.04778427 -0.65559953 16.4140359 -1 21 C-1.33 21 -1.66 21 -2 21 C-2.144375 20.0925 -2.28875 19.185 -2.4375 18.25 C-2.88752763 15.19240878 -2.88752763 15.19240878 -3.62109375 13.0859375 C-4.10300452 10.43294416 -3.54306069 8.89334996 -2.625 6.375 C-2.34914063 5.59898437 -2.07328125 4.82296875 -1.7890625 4.0234375 C-1 2 -1 2 0 0 Z " fill="#DEDEDE" transform="translate(92,250)"/>
    <path d="M0 0 C5.28 0 10.56 0 16 0 C16 0.33 16 0.66 16 1 C9.565 1.495 9.565 1.495 3 2 C1.72333341 5.82999978 0.68717066 9.10603294 0 13 C-0.99 13 -1.98 13 -3 13 C-3.40973093 7.40034391 -2.44711806 5.70994215 0 0 Z " fill="#EFEFEF" transform="translate(445,259)"/>
    <path d="M0 0 C2.85589186 2.85589186 2.98667481 4.73349621 3.1875 8.75 C3.14992636 12.80795324 2.27940817 16.16177548 1 20 C0.01 19.34 -0.98 18.68 -2 18 C-1.34 18 -0.68 18 0 18 C0.33 15.36 0.66 12.72 1 10 C0.01 9.67 -0.98 9.34 -2 9 C-2.33 8.01 -2.66 7.02 -3 6 C-2.01 6 -1.02 6 0 6 C-0.2784375 4.7934375 -0.2784375 4.7934375 -0.5625 3.5625 C-0.706875 2.716875 -0.85125 1.87125 -1 1 C-0.67 0.67 -0.34 0.34 0 0 Z " fill="#CFD0D0" transform="translate(141,259)"/>
    <path d="M0 0 C5.42993582 -0.21349682 10.06836562 0.5044292 15.3125 1.875 C16.02728516 2.04902344 16.74207031 2.22304687 17.47851562 2.40234375 C22.74170354 3.74170354 22.74170354 3.74170354 25 6 C21.66279825 7.12507029 19.74912958 6.86296942 16.4375 5.75 C12.60272914 4.5098431 8.76682398 3.36203705 4.875 2.3125 C3.94429688 2.06113281 3.01359375 1.80976563 2.0546875 1.55078125 C1.37664062 1.36902344 0.69859375 1.18726563 0 1 C0 0.67 0 0.34 0 0 Z " fill="#D5D5D5" transform="translate(259,182)"/>
    <path d="M0 0 C0.33 1.32 0.66 2.64 1 4 C1.97839844 4.09087891 1.97839844 4.09087891 2.9765625 4.18359375 C4.77944546 4.35643651 6.581531 4.53775962 8.3828125 4.7265625 C10.42011869 4.93941539 12.45972116 5.13033225 14.5 5.3125 C17 6 17 6 18.375 8.0625 C18.58125 8.701875 18.7875 9.34125 19 10 C18.01 10 17.02 10 16 10 C15.67 9.34 15.34 8.68 15 8 C12.29400158 7.52402634 9.66404596 7.15906371 6.9375 6.875 C6.17888672 6.78863281 5.42027344 6.70226562 4.63867188 6.61328125 C2.76003014 6.40060483 0.88011364 6.19924541 -1 6 C-0.67 4.02 -0.34 2.04 0 0 Z " fill="#F0F0F0" transform="translate(367,262)"/>
    <path d="M0 0 C1.26328125 0.03609375 2.5265625 0.0721875 3.828125 0.109375 C5.27445312 0.17898437 5.27445312 0.17898437 6.75 0.25 C6.75 0.91 6.75 1.57 6.75 2.25 C4.87612523 2.5896019 3.00083303 2.92138691 1.125 3.25 C0.08085937 3.435625 -0.96328125 3.62125 -2.0390625 3.8125 C-5.15574865 4.23715797 -8.10930812 4.32545206 -11.25 4.25 C-7.85110743 -0.11019552 -5.38491164 -0.19944117 0 0 Z " fill="#F4F4F4" transform="translate(386.25,233.75)"/>
    <path d="M0 0 C0.33 0 0.66 0 1 0 C1 2.31 1 4.62 1 7 C-4.28 6.67 -9.56 6.34 -15 6 C-11.2311658 4.1155829 -9.31987525 3.66570538 -5.25 3.375 C-4.26515625 3.30023438 -3.2803125 3.22546875 -2.265625 3.1484375 C-1.51796875 3.09945313 -0.7703125 3.05046875 0 3 C0 2.01 0 1.02 0 0 Z " fill="#EFEFEF" transform="translate(408,263)"/>
    <path d="M0 0 C2.625 0.9375 2.625 0.9375 5 2 C5 2.66 5 3.32 5 4 C-2.92 3.67 -10.84 3.34 -19 3 C-19 2.67 -19 2.34 -19 2 C-17.19402344 1.90912109 -17.19402344 1.90912109 -15.3515625 1.81640625 C-13.77602923 1.73200268 -12.20050904 1.64735459 -10.625 1.5625 C-9.8309375 1.52318359 -9.036875 1.48386719 -8.21875 1.44335938 C-3.97398779 1.31106596 -3.97398779 1.31106596 0 0 Z " fill="#E8E8E8" transform="translate(326,211)"/>
    <path d="M0 0 C0.33 0.66 0.66 1.32 1 2 C8.92 1.505 8.92 1.505 17 1 C17.33 1.99 17.66 2.98 18 4 C12.06 4 6.12 4 0 4 C0 2.68 0 1.36 0 0 Z " fill="#272727" transform="translate(225,206)"/>
    <path d="M0 0 C-2.69192661 3.32532111 -6.06546515 4.52454943 -10 6 C-10.99 6 -11.98 6 -13 6 C-12 3 -12 3 -10.29296875 1.796875 C-9.59816406 1.45140625 -8.90335938 1.1059375 -8.1875 0.75 C-7.50042969 0.39421875 -6.81335938 0.0384375 -6.10546875 -0.328125 C-3.64922558 -1.11193544 -2.39957614 -0.84119973 0 0 Z " fill="#131413" transform="translate(146,195)"/>
    <path d="M0 0 C1.67542976 0.28604898 3.34385343 0.61781233 5 1 C5.5625 2.9375 5.5625 2.9375 6 5 C5 6 5 6 2.4375 6.0625 C1.2309375 6.0315625 1.2309375 6.0315625 0 6 C-0.38218767 4.34385343 -0.71395102 2.67542976 -1 1 C-0.67 0.67 -0.34 0.34 0 0 Z " fill="#1F1F1F" transform="translate(120,265)"/>
    <path d="M0 0 C0.66 0.33 1.32 0.66 2 1 C1.67 1.33 1.34 1.66 1 2 C1.66 2.66 2.32 3.32 3 4 C-3.625 6.875 -3.625 6.875 -7 8 C-7.66 7.01 -8.32 6.02 -9 5 C-7.54735962 4.1361871 -6.0876837 3.28419546 -4.625 2.4375 C-3.40683594 1.72400391 -3.40683594 1.72400391 -2.1640625 0.99609375 C-1.44992187 0.66738281 -0.73578125 0.33867187 0 0 Z " fill="#DFDFDF" transform="translate(375,235)"/>
    <path d="M0 0 C1.625 0.8125 1.625 0.8125 2.625 2.8125 C-1.375 4.14583333 -5.375 5.47916667 -9.375 6.8125 C-9.375 5.4925 -9.375 4.1725 -9.375 2.8125 C-3.02780289 -0.23903707 -3.02780289 -0.23903707 0 0 Z " fill="#DEDEDE" transform="translate(114.375,235.1875)"/>
    <path d="M0 0 C6.6 0.33 13.2 0.66 20 1 C20 1.33 20 1.66 20 2 C14.06 2 8.12 2 2 2 C1.34 4.64 0.68 7.28 0 10 C-0.33 10 -0.66 10 -1 10 C-0.67 6.7 -0.34 3.4 0 0 Z " fill="#484848" transform="translate(40,216)"/>
    <path d="M0 0 C0.99 0.33 1.98 0.66 3 1 C3.12375 1.969375 3.2475 2.93875 3.375 3.9375 C3.684375 5.4534375 3.684375 5.4534375 4 7 C4.66 7.33 5.32 7.66 6 8 C4.02 8.33 2.04 8.66 0 9 C0 6.03 0 3.06 0 0 Z " fill="#F2F1F2" transform="translate(391,281)"/>
    <path d="M0 0 C0.33 0.66 0.66 1.32 1 2 C-1.64 2 -4.28 2 -7 2 C-7.33 2.99 -7.66 3.98 -8 5 C-8.66 5.66 -9.32 6.32 -10 7 C-10 6.01 -10 5.02 -10 4 C-10.99 3.67 -11.98 3.34 -13 3 C-9.25711729 -0.74288271 -5.09766283 -0.09803198 0 0 Z " fill="#C7C7C7" transform="translate(126,247)"/>
    <path d="M0 0 C-1 3 -1 3 -3.1796875 4.203125 C-4.06914062 4.54859375 -4.95859375 4.8940625 -5.875 5.25 C-6.75929687 5.60578125 -7.64359375 5.9615625 -8.5546875 6.328125 C-11 7 -11 7 -14 6 C-5.4 0 -5.4 0 0 0 Z " fill="#E5E5E5" transform="translate(155,187)"/>
    <path d="M0 0 C1.32 0.66 2.64 1.32 4 2 C4 3.32 4 4.64 4 6 C2.35 6.33 0.7 6.66 -1 7 C-1.625 4.625 -1.625 4.625 -2 2 C-1.34 1.34 -0.68 0.68 0 0 Z " fill="#202020" transform="translate(387,265)"/>
    <path d="M0 0 C0.33 0.99 0.66 1.98 1 3 C3.97 3.33 6.94 3.66 10 4 C10 4.66 10 5.32 10 6 C6.7 6.33 3.4 6.66 0 7 C0 4.69 0 2.38 0 0 Z " fill="#F6F6F6" transform="translate(102,263)"/>
    <path d="M0 0 C2.64 0.66 5.28 1.32 8 2 C7.67 2.99 7.34 3.98 7 5 C1.72 4.34 -3.56 3.68 -9 3 C-9 2.67 -9 2.34 -9 2 C-6.03 2 -3.06 2 0 2 C0 1.34 0 0.68 0 0 Z " fill="#D4D5D4" transform="translate(393,234)"/>
    <path d="M0 0 C5.27749285 0.53851968 9.25645564 1.77343836 14 4 C13.67 4.99 13.34 5.98 13 7 C8.71 5.02 4.42 3.04 0 1 C0 0.67 0 0.34 0 0 Z " fill="#E0E1E0" transform="translate(282,188)"/>
    <path d="M0 0 C2.0625 0.4375 2.0625 0.4375 4 1 C2.25 5.875 2.25 5.875 0 7 C-0.99 6.67 -1.98 6.34 -3 6 C-1.125 1.125 -1.125 1.125 0 0 Z " fill="#141515" transform="translate(397,252)"/>
    <path d="M0 0 C3.63 0.33 7.26 0.66 11 1 C10.67 1.99 10.34 2.98 10 4 C6.7 3.67 3.4 3.34 0 3 C0 2.01 0 1.02 0 0 Z " fill="#212121" transform="translate(255,183)"/>
    <path d="M0 0 C3.95820859 0.56545837 6.6659053 1.80902348 10 4 C9.01 4.99 8.02 5.98 7 7 C5.82780457 6.21654285 4.66236332 5.42297164 3.5 4.625 C2.8503125 4.18414062 2.200625 3.74328125 1.53125 3.2890625 C1.0259375 2.86367187 0.520625 2.43828125 0 2 C0 1.34 0 0.68 0 0 Z " fill="#E9E9E9" transform="translate(400,237)"/>
    <path d="M0 0 C2.04219706 1.69179328 2.91793306 2.63727666 3.51171875 5.26171875 C3.56972656 6.06222656 3.62773438 6.86273438 3.6875 7.6875 C3.75324219 8.49574219 3.81898437 9.30398438 3.88671875 10.13671875 C3.92410156 10.75160156 3.96148437 11.36648438 4 12 C4.66 12 5.32 12 6 12 C6 12.66 6 13.32 6 14 C5.01 14 4.02 14 3 14 C2.49307308 12.4188708 1.99473557 10.83498617 1.5 9.25 C1.2215625 8.36828125 0.943125 7.4865625 0.65625 6.578125 C0 4 0 4 0 0 Z " fill="#DFDFDF" transform="translate(117,251)"/>
    <path d="M0 0 C3.59905908 0.55550695 4.99909799 1.74887248 7.25 4.5625 C8.03117187 5.52349609 8.03117187 5.52349609 8.828125 6.50390625 C9.21484375 6.99761719 9.6015625 7.49132812 10 8 C5.4934738 7.12808515 3.32331916 5.09672921 0 2 C0 1.34 0 0.68 0 0 Z " fill="#E3E3E3" transform="translate(374,257)"/>
    <path d="M0 0 C1.32 0 2.64 0 4 0 C3.71872579 1.48117801 3.42466268 2.95993249 3.125 4.4375 C2.96257812 5.26121094 2.80015625 6.08492187 2.6328125 6.93359375 C2.31957031 7.95646484 2.31957031 7.95646484 2 9 C1.01 9.495 1.01 9.495 0 10 C0 6.7 0 3.4 0 0 Z " fill="#F2F2F2" transform="translate(391,248)"/>
    <path d="M0 0 C0.33 0.66 0.66 1.32 1 2 C2.12148437 1.74863281 2.12148437 1.74863281 3.265625 1.4921875 C4.25046875 1.28851563 5.2353125 1.08484375 6.25 0.875 C7.22453125 0.66617187 8.1990625 0.45734375 9.203125 0.2421875 C12.23442766 -0.0202996 13.48017346 0.38011151 16 2 C12.57767028 3.14077657 9.91326783 3.09815117 6.3125 3.0625 C4.54326172 3.04896484 4.54326172 3.04896484 2.73828125 3.03515625 C1.83464844 3.02355469 0.93101563 3.01195312 0 3 C0 2.01 0 1.02 0 0 Z " fill="#F7F7F7" transform="translate(126,266)"/>
    <path d="M0 0 C0.639375 0.144375 1.27875 0.28875 1.9375 0.4375 C5.93844788 1.17236798 9.95504896 1.58581111 14 2 C14 2.33 14 2.66 14 3 C10.37 3 6.74 3 3 3 C3 3.66 3 4.32 3 5 C1.68 4.67 0.36 4.34 -1 4 C-0.34 3.67 0.32 3.34 1 3 C0.67 2.01 0.34 1.02 0 0 Z " fill="#2E2E2E" transform="translate(152,174)"/>
    <path d="M0 0 C0.99 0.33 1.98 0.66 3 1 C2.67 2.98 2.34 4.96 2 7 C1.01 7 0.02 7 -1 7 C-1.33 5.02 -1.66 3.04 -2 1 C-1.34 0.67 -0.68 0.34 0 0 Z " fill="#212121" transform="translate(122,256)"/>
    <path d="M0 0 C1.32 0.66 2.64 1.32 4 2 C3.01 2 2.02 2 1 2 C0.9175 3.11375 0.835 4.2275 0.75 5.375 C0.5025 6.57125 0.255 7.7675 0 9 C-2.046875 10.2265625 -2.046875 10.2265625 -4 11 C-3.52269162 9.5410574 -3.04308958 8.08286504 -2.5625 6.625 C-2.29566406 5.81289063 -2.02882813 5.00078125 -1.75390625 4.1640625 C-1 2 -1 2 0 0 Z " fill="#D5D6D6" transform="translate(385,272)"/>
    <path d="M0 0 C2.9719385 1.12451727 5.33440687 2.22293791 8 4 C7.67 4.99 7.34 5.98 7 7 C3.535 5.02 3.535 5.02 0 3 C0 2.01 0 1.02 0 0 Z " fill="#DBDBDB" transform="translate(309,200)"/>
    <path d="M0 0 C2.9375 0.8125 2.9375 0.8125 6 2 C6.33 2.99 6.66 3.98 7 5 C3.26512223 4.5020163 1.18762365 4.12508244 -2 2 C-1.34 2 -0.68 2 0 2 C0 1.34 0 0.68 0 0 Z " fill="#202021" transform="translate(284,190)"/>
    <path d="M0 0 C-3.26545761 1.88391785 -6.28111761 2.49287967 -10 3 C-10.33 2.01 -10.66 1.02 -11 0 C-6.94952424 -1.35015859 -4.2079832 -0.62084998 0 0 Z " fill="#C8C9C9" transform="translate(165,186)"/>
    <path d="M0 0 C0.99 0 1.98 0 3 0 C3.33 1.98 3.66 3.96 4 6 C2.35 6 0.7 6 -1 6 C-0.67 4.02 -0.34 2.04 0 0 Z " fill="#2D2C2D" transform="translate(386,274)"/>
    <path d="M0 0 C3.48539917 0.64544429 6.02819057 2.10134397 9 4 C8.67 4.99 8.34 5.98 8 7 C6.66382648 6.02471263 5.3311249 5.04466681 4 4.0625 C3.2575 3.51722656 2.515 2.97195313 1.75 2.41015625 C1.1725 1.94480469 0.595 1.47945313 0 1 C0 0.67 0 0.34 0 0 Z " fill="#E2E2E3" transform="translate(126,271)"/>
    <path d="M0 0 C-0.33 2.31 -0.66 4.62 -1 7 C-1.99 7 -2.98 7 -4 7 C-4 5.02 -4 3.04 -4 1 C-2 0 -2 0 0 0 Z " fill="#E0E0E0" transform="translate(446,265)"/>
    <path d="M0 0 C0.99 0.33 1.98 0.66 3 1 C2.67 1.66 2.34 2.32 2 3 C3.32 3.33 4.64 3.66 6 4 C3.03 4 0.06 4 -3 4 C-2.67 3.01 -2.34 2.02 -2 1 C-1.34 0.67 -0.68 0.34 0 0 Z " fill="#242424" transform="translate(396,263)"/>
    <path d="M0 0 C-0.33 1.32 -0.66 2.64 -1 4 C-3.31 4 -5.62 4 -8 4 C-3.375 0 -3.375 0 0 0 Z " fill="#161616" transform="translate(126,204)"/>
    <path d="M0 0 C0 3.20395416 -0.74335022 5.09399739 -2 8 C-2.99 7.34 -3.98 6.68 -5 6 C-3.63016497 2.83884224 -3.0109362 2.0072908 0 0 Z " fill="#1F1E1F" transform="translate(112,276)"/>
    <path d="M0 0 C0.66 0.33 1.32 0.66 2 1 C1.67 1.99 1.34 2.98 1 4 C0.34 4 -0.32 4 -1 4 C-1 4.66 -1 5.32 -1 6 C-2.32 5.67 -3.64 5.34 -5 5 C-3.35 3.35 -1.7 1.7 0 0 Z " fill="#EEEEEE" transform="translate(119,203)"/>
    <path d="M0 0 C0.66 0 1.32 0 2 0 C1.34 2.97 0.68 5.94 0 9 C-0.99 8.67 -1.98 8.34 -3 8 C-1.125 2.25 -1.125 2.25 0 0 Z " fill="#E3E2E2" transform="translate(119,275)"/>
    <path d="M0 0 C0.33 0.99 0.66 1.98 1 3 C1.66 3 2.32 3 3 3 C2.67 3.99 2.34 4.98 2 6 C2 5.34 2 4.68 2 4 C0.02 4.99 -1.96 5.98 -4 7 C-4.66 6.34 -5.32 5.68 -6 5 C-4.02 4.34 -2.04 3.68 0 3 C0 2.01 0 1.02 0 0 Z " fill="#BFC0C0" transform="translate(117,269)"/>
    <path d="M0 0 C0.66 0 1.32 0 2 0 C2.66 1.98 3.32 3.96 4 6 C2.125 5.6875 2.125 5.6875 0 5 C-0.66 4.01 -1.32 3.02 -2 2 C-1.34 2 -0.68 2 0 2 C0 1.34 0 0.68 0 0 Z " fill="#212121" transform="translate(382,258)"/>
    <path d="M0 0 C0.99 0.66 1.98 1.32 3 2 C2.525625 2.598125 2.05125 3.19625 1.5625 3.8125 C-0.16465744 6.00382924 -0.16465744 6.00382924 -1 9 C-1.66 9 -2.32 9 -3 9 C-2.01 6.03 -1.02 3.06 0 0 Z " fill="#252525" transform="translate(395,250)"/>
    <path d="M0 0 C6.93 0.495 6.93 0.495 14 1 C14 1.33 14 1.66 14 2 C8.06 2.495 8.06 2.495 2 3 C1.34 2.01 0.68 1.02 0 0 Z " fill="#373738" transform="translate(180,183)"/>
    <path d="M0 0 C0.33 1.32 0.66 2.64 1 4 C2.32 4 3.64 4 5 4 C5 4.66 5 5.32 5 6 C3.02 6 1.04 6 -1 6 C-0.67 4.02 -0.34 2.04 0 0 Z " fill="#F8F8F8" transform="translate(367,262)"/>
    <path d="M0 0 C2 0.6875 2 0.6875 4 2.6875 C2.02 3.0175 0.04 3.3475 -2 3.6875 C-2.66 2.6975 -3.32 1.7075 -4 0.6875 C-2 -0.3125 -2 -0.3125 0 0 Z " fill="#29292A" transform="translate(148,192.3125)"/>
    <path d="M0 0 C1.67542976 0.28604898 3.34385343 0.61781233 5 1 C4.0409375 1.433125 4.0409375 1.433125 3.0625 1.875 C0.84793921 2.82823451 0.84793921 2.82823451 0 5 C-0.5625 3.0625 -0.5625 3.0625 -1 1 C-0.67 0.67 -0.34 0.34 0 0 Z " fill="#F2F2F2" transform="translate(370,277)"/>
    <path d="M0 0 C0.99 0 1.98 0 3 0 C2.42655063 2.86724686 2.1385485 3.8614515 0 6 C-0.66 5.01 -1.32 4.02 -2 3 C-1.34 2.01 -0.68 1.02 0 0 Z " fill="#EEEFEF" transform="translate(95,246)"/>
</svg>
